<?xml version="1.0" encoding="iso-8859-1"?>
<!-- Uploaded to: SVG Repo, www.svgrepo.com, Generator: SVG Repo Mixer Tools -->
<!DOCTYPE svg PUBLIC "-//W3C//DTD SVG 1.1//EN" "http://www.w3.org/Graphics/SVG/1.1/DTD/svg11.dtd">
<svg fill="#000000" height="800px" width="800px" version="1.1" id="Capa_1" xmlns="http://www.w3.org/2000/svg" xmlns:xlink="http://www.w3.org/1999/xlink" 
	 viewBox="0 0 363.574 363.574" xml:space="preserve">
<path d="M128.515,358.621c-1.582,3.141-4.753,4.954-8.045,4.954c-1.361,0-2.743-0.31-4.041-0.964
	c-27.744-13.974-50.713-36.944-64.679-64.681c-2.235-4.439-0.448-9.851,3.991-12.086c4.442-2.236,9.852-0.448,12.086,3.991
	c12.242,24.313,32.378,44.45,56.698,56.699C128.964,348.77,130.75,354.182,128.515,358.621z M354.13,1.936
	c-2.162-1.707-4.987-2.328-7.667-1.688L181.787,39.599L17.111,0.248c-2.681-0.643-5.506-0.018-7.667,1.688
	C7.281,3.643,6.02,6.246,6.02,9.001v208.458c0,4.165,2.858,7.786,6.909,8.753l32.533,7.773c4.833,1.155,9.69-1.829,10.845-6.663
	c1.155-4.834-1.828-9.69-6.663-10.845l-25.624-6.122V20.405l148.768,35.55v46.036c0,4.971,4.029,9,9,9s9-4.029,9-9V55.955
	l148.768-35.55v189.951l-29.351,7.014c-4.834,1.155-7.817,6.011-6.662,10.845c0.987,4.131,4.677,6.911,8.746,6.91
	c0.692,0,1.396-0.081,2.1-0.249l36.259-8.664c4.051-0.968,6.908-4.588,6.908-8.753V9.001C357.555,6.246,356.293,3.643,354.13,1.936z
	 M288.608,232.573c0,58.904-47.92,106.825-106.821,106.825c-58.904,0-106.826-47.921-106.826-106.825
	c0-58.903,47.922-106.825,106.826-106.825C240.688,125.748,288.608,173.67,288.608,232.573z M172.787,262.525
	c-10.02-3.016-17.936-10.932-20.952-20.952H93.414c4.226,41.809,37.564,75.147,79.373,79.373V262.525z M181.787,245.845
	c7.316,0,13.27-5.954,13.27-13.271c0-7.317-5.953-13.271-13.27-13.271c-7.318,0-13.272,5.954-13.272,13.271
	C168.515,239.891,174.469,245.845,181.787,245.845z M270.156,241.573h-58.419c-3.016,10.019-10.933,17.935-20.95,20.952v58.421
	C232.594,316.72,265.931,283.382,270.156,241.573z M270.156,223.573c-4.524-44.768-42.43-79.825-88.369-79.825
	c-45.941,0-83.849,35.057-88.373,79.825h58.421c3.874-12.871,15.835-22.271,29.952-22.271c14.115,0,26.076,9.4,29.95,22.271H270.156
	z M307.832,179.302c4.439-2.235,6.227-7.646,3.99-12.086c-13.97-27.742-36.94-50.713-64.679-64.681
	c-4.439-2.237-9.852-0.45-12.086,3.99c-2.235,4.439-0.449,9.851,3.99,12.086c24.315,12.244,44.451,32.381,56.698,56.7
	c1.582,3.141,4.753,4.954,8.045,4.954C305.152,180.266,306.534,179.956,307.832,179.302z"/>
</svg>